<svg width="18" height="18" viewBox="0 0 18 18" fill="none" xmlns="http://www.w3.org/2000/svg">
<path d="M9.65891 0.866144C9.23377 0.711285 8.76625 0.711285 8.34111 0.866144C8.04134 0.975336 7.81322 1.16636 7.62032 1.36274C7.43751 1.54885 7.23596 1.79384 7.00782 2.07117L4.07017 5.63951C3.79153 5.97816 3.55017 6.2715 3.37875 6.52387C3.2033 6.78217 3.03375 7.09077 3.0054 7.45969C2.96623 7.9695 3.14158 8.46935 3.4848 8.84555C3.73154 9.11601 4.05145 9.25886 4.34975 9.36016C4.64182 9.45935 5.01527 9.55012 5.44911 9.65557L8.12218 10.3054C8.359 10.363 8.54696 10.4088 8.74169 10.4274C8.91349 10.4438 9.08652 10.4438 9.25833 10.4274C9.45306 10.4088 9.64102 10.363 9.87784 10.3054L12.551 9.65555C12.9848 9.55011 13.3582 9.45934 13.6503 9.36016C13.9486 9.25886 14.2685 9.11601 14.5152 8.84555C14.8584 8.46935 15.0338 7.9695 14.9946 7.45969C14.9663 7.09077 14.7967 6.78217 14.6213 6.52387C14.4498 6.2715 14.2085 5.97816 13.9299 5.63952L10.9922 2.07118C10.7641 1.79385 10.5625 1.54885 10.3797 1.36274C10.1868 1.16636 9.95867 0.975336 9.65891 0.866144Z" fill="#2574FF"/>
<path d="M5.82095 10.7062C5.47659 10.6105 5.11677 10.4855 4.755 10.4832C4.63393 10.4824 4.45287 10.4975 4.26847 10.5937C3.92168 10.7744 3.68642 11.1254 3.66509 11.5274C3.65366 11.7428 3.72079 11.9183 3.77516 12.0285C3.83078 12.1413 3.90159 12.2423 3.96474 12.3249C4.08459 12.4816 4.2551 12.6711 4.44262 12.8795C5.36469 13.9041 6.15914 15.0412 7.08248 16.0673C7.30406 16.3136 7.50122 16.5327 7.67943 16.6996C7.86886 16.8769 8.08948 17.047 8.37333 17.1449C8.77965 17.285 9.2224 17.285 9.62873 17.1449C9.91257 17.047 10.1332 16.8769 10.3226 16.6996C10.5008 16.5327 10.698 16.3136 10.9196 16.0673C11.8442 15.0399 12.6448 13.9056 13.5682 12.8795C13.7558 12.6711 13.9263 12.4816 14.0461 12.3249C14.1093 12.2423 14.1801 12.1413 14.2357 12.0285C14.2901 11.9183 14.3572 11.7428 14.3458 11.5274C14.3245 11.1254 14.0892 10.7744 13.7424 10.5937C13.558 10.4975 13.3769 10.4824 13.2559 10.4832C12.8941 10.4855 12.5343 10.6105 12.19 10.7062L9.64462 11.4133C9.30937 11.5065 9.22086 11.5287 9.13667 11.5379C9.04946 11.5473 8.96141 11.5473 8.8742 11.5379C8.79001 11.5287 8.7015 11.5065 8.36625 11.4133L5.82095 10.7062Z" fill="#2574FF"/>
</svg>
