<svg width="20" height="20" viewBox="0 0 20 20" fill="none" xmlns="http://www.w3.org/2000/svg">
<path d="M10.7318 0.962057C10.2594 0.789992 9.73995 0.789992 9.26757 0.962057C8.9345 1.08338 8.68103 1.29563 8.4667 1.51383C8.26357 1.72062 8.03963 1.99284 7.78615 2.30097L4.52208 6.2658C4.21248 6.64208 3.94431 6.968 3.75384 7.24842C3.55889 7.53541 3.3705 7.87831 3.33901 8.28822C3.29548 8.85468 3.49032 9.41006 3.87167 9.82806C4.14583 10.1286 4.50129 10.2873 4.83273 10.3999C5.15725 10.5101 5.5722 10.6109 6.05424 10.7281L9.02432 11.4501C9.28745 11.5142 9.4963 11.565 9.71266 11.5857C9.90355 11.6039 10.0958 11.6039 10.2867 11.5857C10.5031 11.565 10.7119 11.5142 10.9751 11.4501L13.9452 10.7281C14.4272 10.6109 14.8421 10.5101 15.1666 10.3999C15.4981 10.2873 15.8535 10.1286 16.1277 9.82806C16.509 9.41006 16.7039 8.85468 16.6604 8.28822C16.6289 7.87831 16.4405 7.53541 16.2455 7.24842C16.0551 6.96801 15.7869 6.64208 15.4773 6.26581L12.2132 2.30098C11.9597 1.99284 11.7358 1.72062 11.5327 1.51383C11.3183 1.29563 11.0649 1.08338 10.7318 0.962057Z" fill="black"/>
<path d="M6.4674 11.8954C6.08478 11.7891 5.68497 11.6502 5.283 11.6476C5.14848 11.6467 4.9473 11.6636 4.74242 11.7704C4.3571 11.9713 4.09569 12.3612 4.072 12.8079C4.05929 13.0473 4.13389 13.2422 4.1943 13.3647C4.2561 13.49 4.33477 13.6022 4.40495 13.694C4.53811 13.8682 4.72756 14.0787 4.93592 14.3102C5.96044 15.4487 6.84317 16.7121 7.86909 17.8523C8.11529 18.1259 8.33436 18.3694 8.53238 18.5547C8.74285 18.7518 8.98799 18.9408 9.30337 19.0496C9.75485 19.2053 10.2468 19.2053 10.6983 19.0496C11.0136 18.9408 11.2588 18.7518 11.4693 18.5547C11.6673 18.3694 11.8864 18.1259 12.1326 17.8522C13.1599 16.7106 14.0495 15.4503 15.0755 14.3102C15.2839 14.0787 15.4733 13.8682 15.6065 13.694C15.6767 13.6022 15.7553 13.49 15.8171 13.3647C15.8775 13.2422 15.9521 13.0473 15.9394 12.8079C15.9157 12.3612 15.6543 11.9713 15.269 11.7704C15.0641 11.6636 14.8629 11.6467 14.7284 11.6476C14.3265 11.6502 13.9267 11.7891 13.5441 11.8954L10.7159 12.6811C10.3434 12.7846 10.2451 12.8093 10.1515 12.8195C10.0546 12.83 9.95679 12.83 9.85989 12.8195C9.76635 12.8093 9.66801 12.7846 9.29551 12.6811L6.4674 11.8954Z" fill="black"/>
</svg>
