<svg width="24" height="24" viewBox="0 0 24 24" fill="none" xmlns="http://www.w3.org/2000/svg">
<path d="M19.561 3.10333C17.8448 2.92647 16.1051 2.97684 14.3867 3.25294C14.0016 3.31482 13.6875 3.59506 13.5824 3.97074C13.4772 4.34642 13.6002 4.74895 13.8972 5.0018L15.2437 6.14774C15.4585 6.33059 15.6699 6.51733 15.8778 6.70785L9.29277 13.2929C8.90225 13.6834 8.90225 14.3166 9.29277 14.7071C9.6833 15.0976 10.3165 15.0976 10.707 14.7071L17.292 8.12208C17.4825 8.32994 17.6693 8.54136 17.8521 8.75621L18.998 10.1027C19.2509 10.3998 19.6534 10.5227 20.0291 10.4175C20.4048 10.3124 20.685 9.99839 20.7469 9.61322C21.023 7.89496 21.0733 6.15492 20.8965 4.43888C20.8606 4.08946 20.7052 3.77172 20.4665 3.53303C20.2275 3.29395 19.9099 3.13928 19.561 3.10333Z" fill="#193cb8 "/>
<path d="M10.5044 5.00145C11.0567 4.99893 11.5024 4.54918 11.4999 3.9969C11.4973 3.44462 11.0476 2.99895 10.4953 3.00148C8.85331 3.00897 7.6944 3.04647 6.70378 3.45678C5.23362 4.06575 4.06557 5.23379 3.4566 6.70396C3.20742 7.30555 3.10082 7.94802 3.04978 8.69622C2.99987 9.42765 2.99988 10.3297 2.99988 11.4638L2.99988 12.0001C2.99988 12.1699 2.99942 12.3399 2.99896 12.51C2.9964 13.4621 2.99383 14.4171 3.07132 15.3655C3.1445 16.2612 3.29756 17.0248 3.65384 17.7241C4.22906 18.853 5.14701 19.771 6.27599 20.3461C6.97522 20.7024 7.73888 20.8555 8.63446 20.9287C9.50902 21.0001 10.593 21.0001 11.956 21.0001H13.4999C13.5505 21.0001 13.6004 21.0001 13.6496 21.0001C14.9003 21.0004 15.7083 21.0005 16.4006 20.8343C18.5945 20.3075 20.3073 18.5947 20.834 16.4008C21.0003 15.7085 21.0002 14.9005 20.9999 13.6497C20.9999 13.6005 20.9999 13.5507 20.9999 13.5001C20.9999 12.9478 20.5522 12.5001 19.9999 12.5001C19.4476 12.5001 18.9999 12.9478 18.9999 13.5001C18.9999 14.9524 18.9929 15.5026 18.8893 15.9339C18.5382 17.3965 17.3962 18.5384 15.9335 18.8896C15.5023 18.9931 14.9522 19.0001 13.4999 19.0001H11.9999C10.5832 19.0001 9.58092 18.9993 8.79733 18.9353C8.02542 18.8722 7.55418 18.7528 7.18387 18.5641C6.43127 18.1807 5.81935 17.5688 5.43586 16.8161C5.24717 16.4458 5.12775 15.9746 5.06468 15.2027C5.00066 14.4191 4.99988 13.4168 4.99988 12.0001V11.5001C4.99988 10.3215 5.00042 9.48772 5.04514 8.83236C5.08924 8.18599 5.17294 7.7866 5.30436 7.46933C5.71034 6.48922 6.48903 5.71052 7.46914 5.30455C8.03225 5.0713 8.77873 5.00934 10.5044 5.00145Z" fill="#193cb8 "/>
</svg>
